<svg width="22" height="16" viewBox="0 0 22 16" fill="none" xmlns="http://www.w3.org/2000/svg">
<path d="M19.5556 0H1.77778C0.8 0 0 0.8 0 1.77778V14.2222C0 15.2 0.8 16 1.77778 16H19.5556C20.5333 16 21.3244 15.2 21.3244 14.2222L21.3333 1.77778C21.3333 0.8 20.5333 0 19.5556 0ZM7.11111 2.66667C8.58667 2.66667 9.77778 3.85778 9.77778 5.33333C9.77778 6.80889 8.58667 8 7.11111 8C5.63556 8 4.44444 6.80889 4.44444 5.33333C4.44444 3.85778 5.63556 2.66667 7.11111 2.66667ZM12.4444 13.3333H1.77778V12.4444C1.77778 10.6667 5.33333 9.68889 7.11111 9.68889C8.88889 9.68889 12.4444 10.6667 12.4444 12.4444V13.3333ZM15.8667 9.77778H17.3244L18.6667 11.5556L16.8978 13.3244C15.7333 12.4533 14.8711 11.2089 14.4711 9.77778C14.3111 9.20889 14.2222 8.61333 14.2222 8C14.2222 7.38667 14.3111 6.79111 14.4711 6.22222C14.8711 4.78222 15.7333 3.54667 16.8978 2.67556L18.6667 4.44444L17.3244 6.22222H15.8667C15.6711 6.78222 15.5556 7.37778 15.5556 8C15.5556 8.62222 15.6711 9.21778 15.8667 9.77778Z" fill="#4E4E4E"/>
</svg>
